<?xml version="1.0" encoding="utf-8"?>
<!-- Generator: Adobe Illustrator 26.3.1, SVG Export Plug-In . SVG Version: 6.00 Build 0)  -->
<svg version="1.1" id="Layer_1" xmlns="http://www.w3.org/2000/svg" xmlns:xlink="http://www.w3.org/1999/xlink" x="0px" y="0px"
	 viewBox="0 0 2000 300" style="enable-background:new 0 0 2000 300;" xml:space="preserve">
<path d="M103,242.8c-36,0-59.4-40.8-59.4-94.2c0-45.9,20.1-89.4,59.4-89.4c22.2,0,36,10.5,42.9,38.4l5.7-1.5
	c-1.5-13.2-2.4-23.4-4.5-39.6c-6.9-1.5-21-5.4-37.8-5.4c-54.6,0-92.1,40.8-92.1,102.6c0,48,24.9,97.2,85.2,97.2
	c15,0,33.3-4.2,39.9-6c4.5-11.1,9.9-28.2,13.2-39.9l-5.7-1.5C139,226.6,124.9,242.8,103,242.8z"/>
<path d="M605.3,55c0.5,12.5,1.5,29.4,2.5,40.3l-6,0.6c-2.4-11.7-4.5-18-7.8-23.7c-4.5-7.8-9.9-9.6-28.8-9.6h-15.9v151.2
	c0,24.3,1.8,26.1,25.5,27.6v5.7h-72.6v-5.7c22.5-1.5,24.3-3.3,24.3-27.6V62.6H513c-22.2,0-27,2.4-30.9,10.2
	c-2.7,5.4-5.1,12.9-7.8,23.1h-6c1-11.8,2.3-27.5,3-41.1L605.3,55z"/>
<path d="M1266.2,203.3c-3.3,10.2-8.1,20.1-12.6,25.5c-5.7,7.5-12,10.5-33.9,10.5c-15.6,0-23.1-0.3-27-3.6c-4.2-3.3-5.7-9.9-5.7-25.2
	v-58.2h24.9c22.8,0,24.6,1.8,27.6,21h5.7v-50.7h-5.7c-2.7,17.7-3.9,20.4-27.6,20.4H1187V72.3c0-8.7,0.6-9.6,8.1-9.6h17.1
	c19.5,0,27,1.8,31.8,8.1c3.9,5.4,6.9,13.2,9,24.3l6-0.9c-1.2-12-2.4-33.6-2.7-39h-113.7v5.4c19.5,2.1,21.9,3,21.9,28.8v123
	c0,25.6-22.1,29.4-27.6,29.4c-4.3,0-10.6-4.6-18.7-14.5c-6.9-8.4-12.3-16.5-21.9-31.8c-8.1-12.9-20.5-31.1-25.3-41
	c20.7-10.2,35.7-25.8,35.7-51.3c0-17.4-7.2-30-18-37.8c-9.9-7.5-23.1-10.2-43.5-10.2h-63v5.4c20.1,2.4,22.2,3.6,22.2,29.4v122.4
	c0,25.8-1.8,27.3-23.4,29.1v5.7h68.4v-5.7c-20.7-1.8-22.8-3.3-22.8-29.1v-50.7h10.2c11.1,0.3,14.4,4.2,18.6,12.3
	c8.1,15.3,20.2,33.8,28.6,46.7c10.5,16.5,20.4,25.2,45,26.4c3.6,0.1,133.9,0.1,133.9,0.1c2.1-8.4,7.8-35.7,9-42.6L1266.2,203.3z
	 M1067,146c-7.5,6.3-15.9,8.7-28.5,8.7h-12V78c0-8.1,0.9-10.5,3-12.6c2.1-1.8,7.5-2.7,14.4-2.7c18.9,0,38.1,13.2,38.1,45.6
	C1082,124.7,1076.9,137.6,1067,146z"/>
<path d="M1377.6,247.2v-5.7c16.8-1.8,19.2-4.2,16.2-14.4c-3.3-11.4-9.3-31.2-15.6-51.9H1353h-26.4c-3.3,9.9-8.4,28.5-12.6,44.1
	c-4.8,18-2.1,20.1,17.4,22.2v5.7h-54.6v-5.7c15.6-2.1,19.5-3.9,27.9-29.1l52.5-158.7l6.3-2.4c15,48.9,33.6,110.1,51,163.2
	c7.5,23.4,10.8,25.2,27.6,27v5.7H1377.6z M1353.3,90.9h-0.6c-7.8,24.6-15.6,49.8-22.8,74.4h23.1h22.2L1353.3,90.9z"/>
<path d="M1544.3,94.5c-5.1-18-12.6-35.1-36-35.1c-19.8,0-29.4,16.2-29.4,33c0,21,12.6,32.1,32.7,44.1c18.6,11.4,46.5,27,46.5,59.7
	c0,31.5-24.6,54.9-58.5,54.9c-9.3,0-17.1-1.8-23.7-3.6c-6.9-2.1-12-4.5-15.9-6c-2.4-8.1-4.8-26.7-6.9-41.1l6.3-1.8
	c4.2,16.8,16.2,44.4,43.8,44.4c21.3,0,33-15.6,33-37.2c0-20.1-14.1-32.7-33-44.4c-18.3-11.4-44.7-27.6-44.7-58.8
	c0-27.6,20.4-51.3,55.8-51.3c13.8,0,24.3,3.9,31.2,5.7c1.2,9.9,2.7,21.6,4.8,36.3L1544.3,94.5z"/>
<path d="M1728.5,148.8c0,62.4-32.7,102.3-75.9,102.3c-42.9,0-74.1-42.3-74.1-98.1c0-50.7,25.8-101.7,76.8-101.7
	C1695.5,51.4,1728.5,90.6,1728.5,148.8z M1604.9,144.9c0,56.4,18.3,97.8,52.5,97.8c27.6,0,44.7-29.4,44.7-84c0-62.7-18.3-99-51.9-99
	C1622.6,59.8,1604.9,90.6,1604.9,144.9z"/>
<path d="M1911.7,60.5c-15.6,1.5-20.4,5.4-21.3,17.4c-0.6,8.7-1.8,23.7-1.8,49.2v122.4h-7.5l-102-156.3h-0.9v80.7
	c0,24.9,1.2,40.5,1.8,49.5c0.9,13.2,7.5,16.8,26.4,18.3v5.4h-62.1v-5.4c16.8-1.2,21.9-5.1,23.1-18.9c0.6-8.4,1.5-24,1.5-48.9v-73.2
	c0-17.1,0-21-4.8-27.9c-5.4-7.8-9.6-11.1-23.4-12.3v-5.4h38.7l99,147h0.9v-75c0-25.5-0.9-41.1-1.8-48.9
	c-0.9-12.9-6.6-16.5-24.9-17.7v-5.4h59.1V60.5z"/>
<g>
	<path d="M794.2,147.7c0,47.4-30.9,72.9-59.7,72.9c-38.7,0-60.6-35.7-60.6-68.7c0-51,33.3-74.7,60.3-74.7
		C769.3,77.2,794.2,108.4,794.2,147.7z M697.7,144.7c0,42.3,13.8,70.5,39.3,70.5c19.5,0,33.9-16.5,33.9-61.8
		c0-37.5-13.2-70.5-39-70.5C712.3,82.9,697.7,105.4,697.7,144.7z"/>
	<path d="M891.8,113.8c-2.7-9.6-4.2-15-7.8-20.4c-3.6-5.1-9.9-6.9-24.3-6.9h-12.6c-7.2,0-7.5,0.3-7.5,7.5v51.9h22.2
		c17.4,0,18.9-2.7,21.6-16.8h3.6v41.1h-3.6c-2.7-15.3-4.2-17.7-22.2-17.7h-21.6v67.1c0,21,1.8,22.8,21,24.6v3h-58.8v-3
		c16.2-1.8,18-3.6,18-24.3V106c0-19.2-1.8-20.1-18-21.9v-3.3h91.5c0.3,5.4,0.6,20.4,2.1,32.4L891.8,113.8z"/>
</g>
<g>
	<path d="M1950.8,125.4c-18.4,0-33.6-14.2-33.6-33.8c0-19.8,15.2-34,33.6-34c18.6,0,33.8,14.2,33.8,34
		C1984.6,111.2,1969.4,125.4,1950.8,125.4z M1950.8,63.3c-15.4,0-27.5,11.8-27.5,28.3c0,16.3,12.2,28.1,27.5,28.1
		c15.4,0,27.6-11.8,27.6-28.1C1978.3,75.1,1966.2,63.3,1950.8,63.3z M1959.1,108.9c-0.8-0.9-1.1-3.2-1.5-7c-0.2-4.2-1.9-5.5-5.9-5.5
		h-7.2v12.5h-7.8V73.5h16.5c8.9,0,13.5,4.2,13.5,10.8c0,5.1-3.4,8.6-8,8.9c4,0.8,6.3,3.2,6.6,7.2c0.4,5.3,0.6,7,1.9,8.4H1959.1z
		 M1951.7,90.3c4.8,0,7-1.7,7-5.3c0-3.2-2.3-5.3-7-5.3h-7.2v10.6H1951.7z"/>
</g>
<path d="M471.9,203.2c-3.9,11.1-8.1,19.8-13.2,26.7c-5.7,7.8-14.1,9.3-31.2,9.3c-11.4,0-18.9-0.3-24.3-3.3c-4.8-3-6-9.3-6-24.3V88.3
	c0-24,1.8-25.5,21.9-27.9v-5.4h-64.7H337h-58.3v5.4c20.1,1.8,23.7,4.8,24.9,17.1c0.9,9,1.5,24,1.5,48.9v25.5
	c0,42.9-5.4,85.5-45.9,85.5c-37.5,0-44.7-35.7-44.7-73.8V89.8c0-25.8,2.1-27,21.3-29.4v-5.4h-65.4v5.4c19.5,2.1,21.3,3.6,21.3,29.4
	v83.7c0,31.5,6,51.9,20.7,64.5c10.8,9.6,25.8,12.9,39.3,12.9c15,0,31.8-5.1,43.5-18.3c14.4-16.2,19.5-39.3,19.5-72v-34.2
	c0-25.2,0.6-39.9,1.5-48.9c1.2-12.3,5.4-15,21.6-17.1h15.6c19.2,2.4,21.3,3.6,21.3,27.9V214c0,23.7-2.1,25.5-23.4,27.3v5.7h117.3
	l9.3-42.6L471.9,203.2z"/>
</svg>
