<?xml version="1.0" encoding="utf-8"?>
<!-- Generator: Adobe Illustrator 26.3.1, SVG Export Plug-In . SVG Version: 6.00 Build 0)  -->
<svg version="1.1" id="Layer_1" xmlns="http://www.w3.org/2000/svg" xmlns:xlink="http://www.w3.org/1999/xlink" x="0px" y="0px"
	 viewBox="0 0 1000 847.5" style="enable-background:new 0 0 1000 847.5;" xml:space="preserve">
<path d="M995.8,829.9L507.9,3.8h-15.7L4.2,829.9l7.9,13.8h972.5l0.1,0.1l0-0.1h3.2L995.8,829.9z M666.6,651.3l-91.4-76.6
	c-1.4-24.4-14.9-45.6-34.5-57.7c32.9-14.4,56-47.3,56-85.6c0-23-8.4-44-22.2-60.3c70.4,29.3,120.1,98.8,120.1,179.7
	C694.5,587.6,684.3,622,666.6,651.3z M429.5,369.6v362.7c-72.5-28.3-124.1-98.9-124.1-181.3C305.4,468.5,357,397.9,429.5,369.6z
	 M447.8,363.5c16.6-4.6,34.1-7.1,52.2-7.1c2.8,0,5.5,0.1,8.3,0.2c39.1,2.6,70.1,35.2,70.1,74.9c0,39.9-31.3,72.7-70.7,75
	c-1.7-0.1-3.4-0.2-5.1-0.2c-2.4,0-4.7,0.1-7,0.3h-1.4v0.2c-18.4,2.1-34.7,11.1-46.3,24.3V363.5z M496.5,524.9h6.8
	c1.4,0,2.8,0,4.3-0.1c27.7,2.5,49.5,25.9,49.5,54.2c0,30-24.4,54.5-54.5,54.5c-30,0-54.5-24.4-54.5-54.5
	C448,551,469.2,527.9,496.5,524.9z M509.2,338.3c-2-0.1-4-0.2-6-0.2h-9.1v0.1c-46.9,1.3-90,17.8-124.7,44.8l131-218.5l132.9,220.8
	C599.1,357.6,556.1,340.3,509.2,338.3z M490.9,145l-1,1.7l-0.1,0.1l0,0.1L128.6,749.1l-89.2,57.2L490.9,41.8L490.9,145z
	 M290.2,515.1c-2,11.7-3,23.6-3,35.8c0,86.7,52.1,161.4,126.6,194.5H152.1L290.2,515.1z M447.8,738.3V626.9
	c13.3,15.2,32.9,24.8,54.7,24.8c34,0,62.6-23.4,70.5-54.9l83.3,69.7c-35.5,47.8-92.3,78.9-156.3,78.9
	C481.9,745.4,464.4,742.9,447.8,738.3z M712.8,550.9c0-13.7-1.3-27.1-3.8-40.1l141.2,234.6h-264
	C660.7,712.3,712.8,637.6,712.8,550.9z M509.1,143.4l0-101.6l451.2,763.9l-87.2-57.7L509.1,143.4z M43.3,825.4l96.4-61.8h723.9
	l93.4,61.8H43.3z"/>
</svg>
