<?xml version="1.0" standalone="no"?>
<!DOCTYPE svg PUBLIC "-//W3C//DTD SVG 20010904//EN"
 "http://www.w3.org/TR/2001/REC-SVG-20010904/DTD/svg10.dtd">
<svg version="1.0" xmlns="http://www.w3.org/2000/svg"
 width="1000.000000pt" height="1000.000000pt" viewBox="0 0 1000.000000 1000.000000"
 preserveAspectRatio="xMidYMid meet">
<metadata>
Created by potrace 1.14, written by Peter Selinger 2001-2017
</metadata>
<g transform="translate(0.000000,1000.000000) scale(0.100000,-0.100000)"
fill="#000000" stroke="none">
<path d="M4925 9195 c-12 -9 -82 -120 -98 -155 -4 -8 -25 -44 -47 -79 -22 -34
-40 -67 -40 -72 0 -5 -4 -9 -10 -9 -5 0 -10 -5 -10 -11 0 -6 -22 -48 -49 -93
-61 -101 -76 -127 -125 -213 -22 -37 -42 -70 -45 -73 -3 -3 -17 -25 -30 -50
-14 -25 -36 -63 -50 -85 -14 -22 -24 -43 -23 -47 1 -5 -3 -8 -8 -8 -6 0 -10
-4 -10 -9 0 -6 -36 -69 -80 -142 -44 -72 -80 -133 -80 -136 0 -2 -16 -29 -35
-59 -19 -30 -35 -57 -35 -60 0 -3 -16 -31 -37 -62 -20 -31 -50 -82 -66 -112
-17 -30 -34 -58 -40 -61 -5 -3 -8 -9 -8 -13 1 -3 -5 -16 -12 -29 -60 -97 -107
-179 -107 -187 0 -6 -4 -10 -10 -10 -5 0 -10 -4 -10 -9 0 -5 -48 -89 -106
-188 -59 -98 -115 -191 -124 -208 -9 -16 -45 -77 -79 -133 -33 -57 -61 -105
-61 -107 0 -1 -29 -50 -65 -109 -36 -58 -65 -111 -65 -116 0 -6 -4 -10 -10
-10 -5 0 -10 -4 -10 -10 0 -8 -101 -183 -150 -260 -12 -20 -72 -120 -85 -145
-7 -11 -94 -159 -195 -330 -101 -170 -194 -330 -208 -355 -13 -25 -31 -52 -38
-61 -8 -8 -14 -19 -14 -23 0 -5 -12 -27 -28 -50 -15 -22 -38 -62 -52 -88 -14
-27 -28 -48 -32 -48 -5 0 -8 -5 -8 -11 0 -6 -37 -72 -82 -147 -46 -75 -85
-141 -87 -147 -2 -5 -15 -27 -28 -48 -13 -21 -32 -53 -42 -70 -10 -18 -130
-221 -266 -452 -137 -231 -253 -429 -259 -440 -6 -11 -23 -38 -37 -60 -14 -22
-29 -47 -32 -55 -4 -8 -15 -28 -26 -45 -28 -46 -281 -475 -303 -515 -11 -19
-26 -42 -32 -50 -7 -8 -15 -22 -18 -30 -7 -19 -133 -231 -148 -247 -5 -7 -10
-15 -10 -18 0 -4 -36 -67 -80 -141 -44 -74 -80 -136 -80 -139 0 -3 -5 -11 -10
-18 -12 -13 -68 -106 -108 -177 -13 -25 -28 -49 -32 -55 -4 -5 -17 -26 -28
-45 -10 -19 -50 -87 -87 -150 -37 -63 -76 -128 -85 -145 -10 -16 -45 -76 -79
-133 -33 -56 -61 -105 -61 -108 0 -2 -5 -10 -11 -17 -12 -13 -36 -54 -100
-167 -23 -41 -50 -86 -59 -100 -10 -14 -28 -43 -40 -65 -42 -76 -133 -230
-157 -266 -12 -19 -23 -40 -23 -46 0 -6 -4 -13 -8 -15 -5 -1 -22 -28 -39 -58
l-31 -55 39 -68 c22 -37 43 -67 47 -68 4 0 2198 -1 4875 -2 3816 -2 4871 1
4879 10 5 7 25 37 43 67 l33 55 -25 47 c-14 26 -33 59 -42 75 -116 195 -206
348 -215 366 -6 13 -14 23 -18 23 -5 0 -8 4 -8 9 0 9 -57 109 -136 239 -24 41
-44 78 -44 83 0 5 -4 9 -9 9 -5 0 -11 8 -15 18 -7 20 7 -3 -203 347 -7 11 -16
27 -20 35 -4 8 -47 82 -96 165 -49 82 -98 164 -108 182 -10 17 -29 50 -43 72
-15 22 -26 42 -26 44 0 2 -36 64 -80 137 -44 73 -80 134 -80 136 0 2 -15 27
-33 56 -19 29 -45 73 -59 98 -14 25 -69 119 -123 210 -54 91 -109 185 -123
210 -13 25 -28 50 -32 55 -7 9 -208 348 -253 425 -11 19 -27 47 -36 62 -9 15
-58 98 -109 185 -52 87 -109 183 -127 213 -19 30 -34 61 -35 68 0 6 -4 12 -8
12 -4 0 -19 22 -33 50 -13 27 -27 50 -31 50 -5 0 -8 4 -8 9 0 8 -163 289 -220
381 -16 25 -104 174 -116 195 -6 11 -32 56 -59 100 -26 44 -59 100 -72 125
-14 25 -35 61 -48 80 -18 28 -431 727 -505 855 -9 17 -43 72 -74 123 -31 51
-56 95 -56 98 0 3 -8 18 -19 32 -16 24 -37 58 -75 127 -10 17 -133 223 -173
290 -7 11 -15 27 -19 35 -4 8 -18 32 -31 53 -13 21 -32 53 -42 70 -10 18 -41
70 -68 117 -28 47 -70 119 -94 160 -24 41 -47 77 -51 78 -5 2 -8 8 -8 13 0 4
-40 75 -88 156 -48 81 -91 155 -95 163 -4 8 -15 27 -25 42 -9 15 -39 64 -66
110 -27 46 -99 169 -161 273 -341 576 -405 683 -423 717 -12 20 -32 55 -46 77
-15 22 -26 45 -26 51 0 5 -4 10 -10 10 -5 0 -10 6 -10 14 0 7 -7 19 -15 26
-18 15 -143 19 -160 5z m-17 -1045 l-3 -375 -62 -98 c-35 -54 -63 -100 -63
-102 0 -2 -23 -41 -51 -87 -53 -85 -56 -91 -130 -218 -24 -41 -47 -76 -51 -78
-4 -2 -8 -7 -8 -12 0 -6 -109 -191 -229 -390 -61 -100 -227 -377 -231 -385 -3
-5 -17 -28 -31 -50 -14 -22 -29 -47 -32 -55 -4 -8 -16 -28 -27 -45 -11 -16
-29 -46 -40 -65 -11 -19 -30 -52 -42 -72 -13 -20 -63 -104 -111 -185 -49 -81
-121 -202 -162 -268 -41 -66 -74 -126 -74 -132 -1 -7 -5 -13 -11 -13 -5 0 -10
-4 -10 -8 0 -9 -353 -600 -370 -619 -6 -7 -15 -23 -20 -35 -6 -13 -19 -36 -30
-53 -11 -16 -27 -44 -37 -62 -10 -18 -45 -76 -78 -130 -33 -54 -62 -102 -65
-108 -8 -16 -73 -124 -92 -153 -10 -15 -22 -36 -28 -47 -5 -11 -25 -45 -45
-75 -19 -30 -41 -67 -47 -82 -7 -16 -16 -28 -20 -28 -4 0 -8 -4 -8 -9 0 -4
-25 -48 -55 -97 -30 -49 -60 -100 -68 -114 -7 -14 -82 -140 -167 -280 -84
-140 -160 -266 -167 -280 -8 -14 -38 -65 -68 -114 -30 -49 -55 -93 -55 -97 0
-5 -4 -9 -10 -9 -5 0 -10 -4 -10 -9 0 -5 -22 -45 -48 -88 -26 -43 -51 -85 -55
-93 -4 -8 -38 -66 -77 -129 -38 -63 -70 -116 -70 -118 0 -1 -20 -34 -45 -73
-25 -39 -45 -75 -45 -80 0 -6 -4 -10 -10 -10 -5 0 -10 -4 -10 -8 0 -5 -24 -48
-52 -96 -29 -48 -57 -95 -63 -104 -57 -99 -110 -188 -115 -192 -3 -3 -11 -15
-18 -28 -6 -12 -18 -32 -25 -45 -6 -12 -15 -24 -18 -27 -3 -3 -8 -10 -10 -16
-2 -6 -38 -67 -79 -137 -49 -82 -85 -131 -105 -143 -29 -17 -195 -123 -225
-144 -8 -6 -51 -33 -95 -61 -44 -27 -138 -88 -210 -135 -71 -46 -159 -102
-195 -124 -36 -22 -74 -46 -85 -53 -11 -6 -23 -16 -27 -22 -4 -5 -9 -7 -11 -5
-5 5 169 306 193 335 7 8 9 15 6 15 -4 0 -2 6 4 13 17 19 170 280 170 289 0 4
5 8 12 8 6 0 9 3 5 6 -3 4 7 26 23 50 17 23 30 47 30 53 0 6 4 11 8 11 4 0 13
12 20 27 6 16 23 46 37 68 14 22 35 59 47 82 12 24 26 43 30 43 4 0 8 4 8 10
0 5 18 39 40 75 22 36 40 70 40 75 0 6 5 10 10 10 6 0 10 4 10 9 0 5 50 94
111 197 62 104 121 205 133 225 12 20 55 93 96 163 41 70 80 134 85 144 6 9
34 57 63 105 28 49 52 93 52 98 0 5 5 9 10 9 6 0 10 4 10 9 0 5 41 78 91 163
51 84 100 167 109 183 41 71 183 311 190 320 4 6 19 30 32 55 14 25 105 180
203 345 98 165 188 318 200 340 13 22 71 120 129 218 58 98 106 182 106 187 0
6 5 10 10 10 6 0 10 4 10 9 0 5 27 53 60 108 33 54 65 110 71 126 6 15 15 27
20 27 5 0 9 4 9 10 0 8 154 274 214 370 12 19 26 42 29 50 4 8 16 29 27 45 11
17 23 36 27 44 3 8 59 103 123 210 64 108 119 203 123 211 4 8 21 35 37 60 16
25 37 61 46 80 10 19 21 37 24 40 7 6 197 332 217 371 7 15 20 32 28 39 8 7
15 16 15 20 0 4 36 69 80 144 44 76 80 141 80 146 0 4 4 10 8 12 5 2 25 32 46
68 50 88 58 101 76 130 9 14 28 45 42 70 14 25 76 131 138 235 131 222 137
231 182 310 19 33 53 90 76 128 23 37 42 70 42 74 0 3 11 21 25 38 13 18 21
35 18 39 -4 3 -1 6 5 6 7 0 12 4 12 9 0 5 22 45 48 88 26 43 51 85 55 93 4 8
16 29 27 45 10 17 25 41 32 55 8 14 34 59 59 100 l44 75 3 -145 c1 -80 1 -314
0 -520z m268 528 c42 -73 89 -151 103 -173 14 -22 26 -42 26 -45 1 -3 14 -27
31 -54 101 -167 134 -225 134 -235 0 -6 5 -11 10 -11 6 0 10 -7 10 -15 0 -8 5
-15 10 -15 6 0 9 -3 8 -7 -1 -5 5 -19 13 -33 56 -87 179 -300 179 -308 0 -6 4
-12 8 -14 4 -1 59 -91 121 -198 63 -107 124 -211 136 -230 51 -82 85 -141 85
-150 0 -6 5 -10 10 -10 6 0 10 -4 10 -10 0 -8 43 -85 90 -160 5 -8 31 -51 57
-95 26 -44 53 -89 60 -100 7 -11 16 -27 20 -35 4 -8 60 -104 125 -213 65 -109
118 -202 118 -208 0 -5 4 -9 9 -9 5 0 11 -8 14 -17 6 -18 45 -89 60 -108 4 -5
84 -140 178 -300 93 -159 184 -312 201 -340 17 -27 39 -65 50 -83 10 -19 78
-134 150 -255 72 -122 138 -235 148 -252 9 -16 54 -93 100 -170 46 -77 91
-154 101 -172 21 -36 58 -100 76 -128 7 -11 31 -51 53 -90 23 -38 45 -77 50
-85 35 -54 180 -304 180 -308 0 -3 6 -13 14 -21 13 -16 59 -94 80 -138 6 -13
14 -23 19 -23 4 0 7 -4 7 -9 0 -5 50 -94 112 -197 61 -104 160 -272 220 -374
60 -102 113 -192 119 -200 79 -131 219 -374 219 -381 0 -5 5 -9 11 -9 5 0 8
-4 5 -9 -4 -5 -2 -11 2 -13 5 -1 20 -23 34 -48 41 -72 229 -392 253 -430 13
-19 94 -156 180 -305 87 -148 168 -286 180 -305 51 -80 85 -141 85 -150 0 -6
5 -10 10 -10 6 0 10 -4 10 -10 0 -5 28 -56 61 -112 34 -57 64 -106 66 -111 4
-6 -20 8 -87 53 -8 6 -101 68 -207 138 -106 70 -200 133 -210 139 -10 7 -94
63 -188 124 -170 112 -182 122 -207 169 -7 14 -25 44 -40 66 -16 23 -28 45
-28 49 0 3 -12 25 -27 48 -32 49 -24 36 -148 242 -53 88 -101 167 -106 175
-57 93 -159 263 -159 265 0 2 -18 32 -39 66 -70 113 -121 201 -121 210 0 5 -4
9 -8 9 -5 0 -14 11 -20 24 -6 13 -36 65 -67 115 -31 50 -55 93 -55 97 1 4 -2
10 -7 13 -5 3 -114 182 -243 396 -128 215 -245 408 -259 430 -14 22 -26 42
-26 45 0 3 -17 31 -38 63 -20 31 -37 60 -37 64 0 3 -6 14 -14 22 -7 9 -25 37
-39 62 -43 78 -52 94 -58 99 -5 4 -49 77 -134 222 -5 10 -37 61 -70 115 -33
54 -65 107 -71 118 -6 11 -129 215 -272 454 -144 239 -262 438 -262 442 0 5
-4 9 -10 9 -5 0 -10 4 -10 8 0 5 -38 71 -84 148 -46 76 -155 256 -241 399 -86
143 -160 267 -165 275 -113 186 -150 249 -150 259 0 6 -4 11 -8 11 -5 0 -16
15 -25 33 -9 17 -23 41 -29 52 -49 76 -78 127 -78 135 0 6 -4 10 -9 10 -5 0
-11 6 -13 13 -2 6 -101 175 -220 374 l-218 361 0 501 c0 276 2 501 4 501 2 0
39 -60 82 -132z m-152 -1118 c6 -11 55 -93 109 -182 55 -90 104 -172 110 -183
7 -11 16 -23 20 -26 5 -3 8 -9 8 -13 -1 -6 7 -21 46 -83 35 -56 111 -182 117
-195 3 -7 34 -59 69 -115 80 -133 379 -628 392 -650 6 -10 102 -171 214 -358
112 -187 207 -344 210 -350 3 -5 -6 -2 -19 8 -174 125 -400 255 -515 293 -5 2
-62 22 -125 44 -63 22 -124 40 -136 40 -11 0 -24 3 -28 7 -3 4 -17 8 -29 10
-12 2 -44 8 -72 13 -163 32 -401 43 -590 27 -97 -8 -117 -11 -270 -41 -53 -11
-128 -32 -215 -63 -52 -18 -102 -35 -111 -37 -46 -12 -362 -179 -389 -206 -17
-18 -80 -60 -89 -60 -6 0 -11 -4 -11 -10 0 -5 -4 -10 -10 -10 -5 0 13 36 40
81 28 44 50 85 50 90 0 5 5 9 10 9 6 0 10 4 10 9 0 5 86 152 190 326 105 174
190 321 190 326 0 5 5 9 10 9 6 0 10 7 10 15 0 8 5 15 10 15 6 0 10 4 10 9 0
12 133 235 142 239 5 2 8 7 8 12 0 10 71 132 81 140 3 3 9 15 13 28 4 12 12
22 17 22 5 0 9 4 9 9 0 16 492 833 498 827 3 -3 10 -15 16 -26z m103 -1894
c330 -38 600 -305 649 -641 27 -183 -20 -376 -129 -534 -32 -46 -164 -181
-178 -181 -4 0 -14 -6 -21 -13 -26 -24 -164 -85 -233 -102 -38 -10 -116 -19
-173 -21 -57 -2 -115 -6 -130 -9 -15 -4 -40 -8 -57 -11 -106 -20 -245 -98
-341 -192 l-33 -33 -1 33 c0 18 -1 255 -2 525 -2 271 1 493 5 493 5 0 5 5 1
11 -6 10 -9 230 -4 254 1 6 2 15 0 20 -5 27 -2 324 4 333 6 9 84 30 141 38 11
1 21 3 23 3 1 1 4 2 7 3 24 7 120 19 210 24 61 4 111 7 112 8 4 3 98 -2 150
-8z m-832 -1940 c0 -998 -3 -1812 -6 -1810 -7 4 -62 25 -69 26 -21 3 -294 158
-335 190 -5 5 -28 22 -50 39 -22 16 -56 42 -75 57 -47 37 -207 196 -255 255
-53 64 -155 207 -166 232 -5 11 -22 40 -38 65 -16 25 -30 53 -30 62 -1 9 -5
18 -9 20 -25 10 -151 362 -166 463 -3 22 -8 51 -11 65 -33 145 -38 470 -10
625 20 111 32 170 35 170 1 0 3 11 6 25 2 14 11 48 20 75 9 28 17 55 19 60 1
6 7 24 14 40 6 17 19 50 28 75 40 110 224 427 254 438 5 2 9 8 9 13 0 5 11 22
24 37 14 15 34 38 46 52 38 44 106 113 164 168 64 59 240 192 255 192 5 0 11
4 13 9 6 17 296 168 328 171 3 0 5 -816 5 -1814z m1569 1744 c56 -27 132 -70
170 -95 38 -25 71 -45 73 -45 12 0 208 -168 277 -236 272 -272 474 -664 530
-1028 4 -21 8 -41 10 -45 9 -14 19 -172 19 -291 0 -138 -8 -233 -28 -340 -3
-14 -7 -40 -10 -59 -3 -19 -8 -37 -10 -41 -2 -4 -7 -21 -10 -37 -10 -59 -77
-248 -121 -342 -24 -51 -44 -97 -44 -101 0 -5 -3 -10 -7 -12 -5 -1 -16 -16
-25 -33 -21 -38 -28 -40 -58 -13 -14 13 -50 43 -80 68 -30 25 -65 54 -77 65
-12 11 -29 25 -37 32 -8 7 -56 47 -108 90 -51 42 -95 79 -98 83 -3 3 -43 37
-90 75 -47 39 -98 81 -114 95 -16 14 -40 34 -52 45 -13 11 -36 30 -51 43 -167
135 -172 141 -177 197 -14 167 -152 397 -294 490 l-43 28 42 24 c22 12 43 23
45 23 3 0 14 9 26 20 12 10 25 17 30 14 4 -3 8 -2 8 3 0 4 17 19 37 33 57 38
160 148 208 220 50 77 95 163 95 185 0 8 4 15 8 15 5 0 9 6 10 13 0 6 11 53
23 102 28 116 31 279 8 385 -19 88 -47 180 -62 198 -5 6 -6 12 -2 12 5 0 2 8
-6 18 -8 9 -24 34 -34 55 -11 21 -37 60 -57 88 -21 27 -35 49 -31 49 3 0 52
-22 107 -50z m1311 -1482 c39 -66 80 -136 93 -155 12 -18 22 -38 22 -43 0 -6
4 -10 10 -10 5 0 12 -11 16 -25 3 -14 11 -25 17 -25 6 0 7 -3 4 -7 -4 -3 -1
-13 6 -22 8 -9 40 -59 71 -111 31 -52 61 -102 66 -110 5 -8 26 -42 45 -75 20
-33 41 -69 48 -79 61 -99 77 -126 77 -136 0 -5 4 -10 8 -10 5 0 16 -15 25 -32
18 -37 44 -81 106 -181 22 -37 41 -71 41 -75 0 -5 8 -17 18 -28 10 -10 21 -26
25 -34 4 -8 18 -33 32 -55 14 -22 30 -51 37 -65 7 -14 15 -27 18 -30 4 -4 518
-858 536 -891 2 -4 -588 -7 -1312 -7 l-1316 0 44 22 c107 54 174 92 186 103 7
7 19 13 27 13 7 0 15 3 17 8 5 11 66 52 78 52 5 0 10 4 10 8 0 4 12 15 28 24
15 9 39 27 54 40 14 13 48 41 74 63 159 133 353 365 451 538 28 50 115 228
136 277 38 90 95 278 102 337 2 12 6 26 9 31 3 4 8 31 11 58 4 27 8 56 10 64
28 107 25 514 -5 653 -4 20 -5 37 -1 36 3 0 38 -54 76 -121z m-4282 35 c-8
-66 -8 -67 -14 -78 -6 -12 -2 -381 5 -445 6 -60 15 -119 21 -150 3 -14 7 -36
10 -49 83 -437 358 -902 704 -1191 30 -25 62 -52 70 -60 49 -46 230 -159 374
-233 l67 -35 -1300 0 c-1110 0 -1300 2 -1300 14 0 8 4 14 8 14 4 0 13 12 19
28 13 29 44 84 54 92 3 3 8 10 10 15 2 6 20 36 39 68 19 32 40 66 45 75 6 9
60 99 120 199 61 101 116 195 124 210 8 16 18 30 23 31 4 2 8 7 8 12 0 12 163
284 172 288 5 2 8 7 8 12 0 7 135 238 170 290 9 14 40 66 69 115 28 50 140
236 246 413 107 178 195 328 195 333 0 5 5 9 10 9 6 0 10 5 10 10 0 11 29 60
36 60 1 0 0 -21 -3 -47z m2260 -49 c28 -8 59 -16 67 -18 19 -5 84 -40 125 -69
78 -54 174 -180 192 -252 1 -5 9 -35 18 -66 21 -77 14 -214 -14 -298 -54 -157
-167 -270 -346 -343 -78 -32 -242 -31 -340 2 -130 43 -255 152 -315 274 -17
35 -33 72 -35 82 -2 10 -4 19 -5 19 -16 0 -19 202 -4 265 30 131 123 261 236
333 49 32 146 71 193 80 53 9 181 4 228 -9z m642 -759 c27 -22 59 -49 71 -60
12 -11 57 -49 100 -85 44 -35 81 -67 84 -70 4 -4 385 -322 443 -370 10 -8 30
-25 44 -36 l25 -22 -23 -32 c-92 -128 -313 -335 -444 -418 -22 -14 -46 -31
-53 -39 -7 -7 -18 -13 -24 -13 -6 0 -19 -6 -27 -14 -28 -25 -300 -155 -335
-160 -6 -1 -15 -4 -21 -8 -9 -5 -93 -30 -105 -30 -3 0 -15 -4 -28 -9 -24 -9
-35 -12 -122 -28 -30 -6 -68 -13 -85 -16 -69 -13 -158 -19 -295 -19 -186 0
-295 12 -450 49 -69 16 -70 17 -71 43 -1 43 -1 1045 0 1065 1 14 11 9 46 -24
56 -52 143 -111 199 -134 22 -10 50 -21 61 -26 49 -21 185 -43 245 -40 8 1 31
1 51 1 56 0 180 35 256 72 71 34 185 116 216 155 10 13 24 29 31 36 45 46 117
180 141 266 4 13 10 20 14 14 3 -5 28 -27 56 -48z m-4275 -1615 c14 4 36 4 50
0 22 -6 75 -5 90 0 3 1 19 2 35 1 28 -1 38 -1 68 -1 6 0 38 -1 70 -2 33 -2 61
0 63 3 2 4 22 3 44 -1 22 -4 40 -4 40 1 0 5 6 6 14 3 22 -8 146 -10 146 -2 0
4 6 5 14 2 22 -8 146 -10 146 -2 0 4 6 5 14 2 22 -8 146 -10 146 -2 0 4 6 5
14 2 22 -8 146 -10 146 -2 0 4 6 5 14 2 22 -8 146 -10 146 -2 0 4 6 5 14 2 22
-8 146 -10 146 -2 0 4 6 5 14 2 22 -8 146 -10 146 -2 0 4 6 5 14 2 20 -8 137
-10 141 -3 2 3 19 4 37 2 18 -2 39 -4 46 -3 30 1 40 0 95 -2 33 -2 60 0 62 3
2 3 19 4 37 2 37 -4 41 -4 83 -3 17 0 49 -1 73 -3 24 -2 45 0 47 3 2 3 19 5
37 3 18 -2 39 -4 46 -3 30 1 40 0 95 -2 33 -2 60 0 62 3 2 3 19 4 37 2 37 -4
41 -4 83 -3 17 0 49 -1 73 -3 24 -2 45 0 47 3 2 3 19 5 37 3 18 -2 39 -4 46
-3 30 1 40 0 95 -2 33 -2 61 0 63 3 2 4 22 3 44 -1 22 -4 40 -4 40 1 0 5 6 6
14 3 22 -8 146 -10 146 -2 0 4 6 5 14 2 22 -8 146 -10 146 -2 0 4 6 5 14 2 22
-8 146 -10 146 -2 0 4 6 5 14 2 22 -8 146 -10 146 -2 0 4 6 5 14 2 22 -8 146
-10 146 -2 0 4 6 5 14 2 22 -8 146 -10 146 -2 0 4 6 5 14 2 22 -8 146 -10 146
-2 0 4 6 5 14 2 20 -8 137 -10 141 -3 2 3 19 4 37 2 18 -2 39 -4 46 -3 30 1
40 0 95 -2 33 -2 60 0 62 3 2 3 19 4 37 2 37 -4 41 -4 83 -3 17 0 49 -1 73 -3
24 -2 45 0 47 3 2 3 19 5 37 3 18 -2 39 -4 46 -3 30 1 40 0 95 -2 33 -2 60 0
62 3 2 3 19 4 37 2 37 -4 41 -4 83 -3 17 0 49 -1 73 -3 24 -2 45 0 47 3 2 3
19 5 37 3 18 -2 39 -4 46 -3 30 1 40 0 95 -2 33 -2 61 0 63 3 2 4 22 3 44 -1
22 -4 40 -4 40 1 0 5 6 6 14 3 22 -8 146 -10 146 -2 0 4 6 5 14 2 22 -8 146
-10 146 -2 0 4 6 5 14 2 22 -8 146 -10 146 -2 0 4 6 5 14 2 22 -8 146 -10 146
-2 0 4 6 5 14 2 22 -8 146 -10 146 -2 0 4 6 5 14 2 22 -8 146 -10 146 -2 0 4
6 5 14 2 22 -8 146 -10 146 -2 0 4 6 5 14 2 20 -8 137 -10 141 -3 2 3 19 4 37
2 18 -2 39 -4 46 -3 26 0 39 0 92 -2 31 -1 60 1 65 4 6 3 73 -37 150 -89 77
-52 147 -97 155 -100 8 -4 17 -9 20 -13 6 -8 130 -90 136 -90 3 0 10 -5 17
-11 7 -6 73 -50 147 -99 74 -49 140 -93 145 -97 6 -5 31 -22 57 -38 27 -17 48
-33 48 -37 0 -5 6 -8 14 -8 8 0 24 -8 37 -19 23 -18 -75 -19 -4536 -19 -4218
0 -4558 2 -4538 17 26 20 30 23 193 127 74 47 151 96 170 109 412 268 561 359
593 363 17 2 34 5 36 7 2 3 11 1 20 -4 9 -4 27 -5 41 -1z"/>
</g>
</svg>
